<svg xmlns="http://www.w3.org/2000/svg" width="100" height="100" viewBox="0 0 100 100">
  <metadata><?xpacket begin="﻿" id="W5M0MpCehiHzreSzNTczkc9d"?>
<x:xmpmeta xmlns:x="adobe:ns:meta/" x:xmptk="Adobe XMP Core 5.6-c138 79.159824, 2016/09/14-01:09:01        ">
   <rdf:RDF xmlns:rdf="http://www.w3.org/1999/02/22-rdf-syntax-ns#">
      <rdf:Description rdf:about=""/>
   </rdf:RDF>
</x:xmpmeta>
                                                                                                    
                                                                                                    
                                                                                                    
                                                                                                    
                                                                                                    
                                                                                                    
                                                                                                    
                                                                                                    
                                                                                                    
                                                                                                    
                                                                                                    
                                                                                                    
                                                                                                    
                                                                                                    
                                                                                                    
                                                                                                    
                                                                                                    
                                                                                                    
                                                                                                    
                                                                                                    
                           
<?xpacket end="w"?></metadata>
<defs>
    <style>
      .cls-1 {
        fill: #fff;
        fill-rule: evenodd;
      }
    </style>
  </defs>
  <path class="cls-1" d="M442.333,903.666A1.667,1.667,0,1,0,444,905.333,1.667,1.667,0,0,0,442.333,903.666Zm-15-6.666h-1.666v-1.667a1.667,1.667,0,0,0-3.333,0V897h-1.667a1.667,1.667,0,1,0,0,3.333h1.666V902a1.667,1.667,0,0,0,3.333,0v-1.667h1.667A1.667,1.667,0,1,0,427.333,897Zm73.332-23.334a1.586,1.586,0,0,0,.407-0.05c7.261-1.814,11.261-6.533,11.261-13.283V848.667a5.006,5.006,0,0,0-5-5H504A1.667,1.667,0,1,0,504,847h3.333A1.669,1.669,0,0,1,509,848.666v11.667c0,5.218-2.94,8.6-8.738,10.05A1.666,1.666,0,0,0,500.665,873.666ZM477.23,927H460.667a1.667,1.667,0,1,0,0,3.333H477.23A1.667,1.667,0,1,0,477.23,927Zm-38.28-54.6a1.668,1.668,0,0,0-1.212-2.022c-5.8-1.45-8.738-4.831-8.738-10.05V848.667A1.669,1.669,0,0,1,430.667,847H434a1.667,1.667,0,1,0,0-3.333h-3.333a5.006,5.006,0,0,0-5,5v11.666c0,6.75,4,11.469,11.261,13.284a1.631,1.631,0,0,0,.407.05A1.668,1.668,0,0,0,438.95,872.405Zm50,49.19a1.666,1.666,0,0,0-1.617-1.262H450.458a1.665,1.665,0,0,0-1.616,1.262l-3.334,13.333A1.669,1.669,0,0,0,447.125,937h43.542a1.668,1.668,0,0,0,1.616-2.072Zm-39.69,12.072,2.5-10h34.272l2.5,10H449.26Zm58.073-20h-1.666V912a1.667,1.667,0,1,0-3.334,0v1.666h-1.666a1.667,1.667,0,1,0,0,3.334h1.666v1.666a1.667,1.667,0,1,0,3.334,0V917h1.666A1.667,1.667,0,1,0,507.333,913.666Zm10-33.333H514V877a1.667,1.667,0,1,0-3.333,0v3.333h-3.334a1.667,1.667,0,0,0,0,3.333h3.334V887A1.667,1.667,0,0,0,514,887v-3.334h3.333A1.667,1.667,0,1,0,517.333,880.333ZM499,838.667A1.668,1.668,0,0,0,497.333,837H440.667A1.668,1.668,0,0,0,439,838.667v6.666c0,20.162,3.367,27.125,3.468,27.323,1.9,4.429,4.685,7.482,7.379,10.437,4.708,5.16,9.153,10.033,9.153,22.24a18.167,18.167,0,0,1-3.053,9.075,1.667,1.667,0,1,0,2.773,1.85,21.454,21.454,0,0,0,3.613-10.925c0-13.5-5.1-19.085-10.023-24.487-2.623-2.875-5.1-5.591-6.815-9.581-0.032-.065-3.162-6.762-3.162-25.932v-5h53.334v5c0,19.17-3.131,25.867-3.2,26.01-1.676,3.912-4.155,6.628-6.778,9.5-4.927,5.4-10.023,10.989-10.023,24.487a21.454,21.454,0,0,0,3.613,10.925,1.667,1.667,0,1,0,2.773-1.85A18.407,18.407,0,0,1,479,905.333c0-12.207,4.445-17.08,9.153-22.24,2.694-2.955,5.48-6.008,7.339-10.348,0.141-.287,3.508-7.25,3.508-27.412v-6.666h0Zm-37.78,32.906a1.665,1.665,0,0,0,1.886.237l6.014-3.153,5.748,3.138a1.665,1.665,0,0,0,2.37-2.015l-2.015-5.723,4.855-4.119A1.667,1.667,0,0,0,479,857h-5.9l-2.577-5.688a1.665,1.665,0,0,0-1.519-.978h0a1.665,1.665,0,0,0-1.518.984L464.934,857H459a1.666,1.666,0,0,0-1.04,2.968l5.078,4.059-2.255,5.693A1.671,1.671,0,0,0,461.22,871.573Zm4.795-11.24a1.668,1.668,0,0,0,1.522-.985l1.471-3.29,1.5,3.3a1.664,1.664,0,0,0,1.519.978h2.438l-2.267,1.924a1.667,1.667,0,0,0-.5,1.825l0.954,2.705-2.715-1.484a1.675,1.675,0,0,0-1.574-.013l-2.828,1.481,1.057-2.664a1.665,1.665,0,0,0-.51-1.916l-2.325-1.858h2.258Z" transform="translate(-419 -837)"/>
</svg>
